<svg width="250" height="250" viewBox="0 0 250 250" fill="none" xmlns="http://www.w3.org/2000/svg">
    <g clip-path="url(#clip0_1_2)">
        <path
            d="M188.138 157.043L153.969 150.12V154.81L152.406 173.346L144.366 199.476V250.841L147.269 261.784L208.014 255.307V250.841L204.888 235.208L208.014 229.848L214.714 235.208L224.541 241.684L236.824 250.841L250 261.784V197.019L218.288 171.783L214.714 167.093L204.888 161.733L188.138 157.043Z"
            fill="#47382C" stroke="black" />
        <path
            d="M65.3083 156.597L85.8544 150.344V157.49L98.5841 183.173L110.644 190.766L117.567 208.855L119.354 235.208L115.334 250.841V253.297L100.371 255.084H50.5687H3.89331V250.841L5.67993 240.121L11.2631 217.342L18.8562 194.116L26.4494 178.929L29.7993 174.686L34.4891 169.773L39.849 167.093L54.142 162.18L65.3083 156.597Z"
            fill="#47382C" stroke="black" />
        <path
            d="M178.089 252.627L191.488 246.374L199.305 242.801L203.771 237.665M49.4521 246.374L54.3653 248.384L81.6112 252.627V248.384L51.462 244.364L49.4521 242.801L47.2188 240.791L49.4521 246.374ZM49.4521 246.374V252.627"
            stroke="black" />
        <path
            d="M90.1095 188.908V186.839L95.4179 183.619L100.265 184.539L104.614 188.908L107.189 193.508L110.644 203.396L114.574 211.759L117.344 221.563V230.071L114.574 223.862L112.497 220.643L107.189 213.974L100.265 203.396C98.1874 201.173 93.6176 196.083 91.9559 193.508C90.2942 190.932 90.0326 189.368 90.1095 188.908Z"
            fill="url(#paint0_linear_1_2)" />
        <path
            d="M93.6709 138.507L97.9141 135.604V138.507L95.2342 140.294L92.7776 142.974L91.8843 146.77L92.7776 152.354L95.2342 158.83L100.371 174.463L106.401 188.309H104.614L101.264 186.523L95.9042 185.853C95.3831 186.076 93.6262 186.88 90.7676 188.309C87.909 189.739 87.7899 193.222 88.0877 194.786L88.981 198.359C88.3855 197.987 86.8817 196.617 85.6311 194.116C84.3805 191.614 83.1745 186.076 82.7278 183.619C82.0579 180.121 80.6286 171.604 80.2712 165.53C79.9139 159.455 81.7601 155.257 82.7278 153.917L89.651 143.867L93.6709 138.507Z"
            fill="#574537" stroke="black" />
        <path
            d="M157.096 149.897L148.833 142.75V147.217L149.503 151.907V161.51L147.493 167.763L144.59 178.929L143.92 225.828L146.153 251.288V243.471L147.493 224.265C148.312 219.947 150.173 210.374 151.066 206.622C151.959 202.87 154.565 199.252 155.756 197.912L158.659 194.116L156.426 188.309C159.925 187.341 167.95 185.093 172.059 183.843C176.168 182.592 183.002 178.259 185.905 176.25C184.565 175.356 181.349 173.123 179.205 171.336C177.061 169.55 171.91 164.488 169.602 162.18L163.796 155.703L157.096 149.897Z"
            fill="#574537" stroke="black" />
        <path
            d="M96.7975 151.237L97.9141 136.497V132.254L98.8074 133.594L101.934 135.157L116.897 146.324L149.056 135.157L148.163 164.86C148.461 164.637 148.654 165.708 146.153 169.103C143.652 172.498 136.55 179.376 131.86 180.493C129.775 181.312 123.463 182.324 115.78 181.609C108.181 180.902 100.974 175.912 98.0095 173.859L97.9141 173.793L95.6808 165.53L96.7975 158.83V151.237Z"
            fill="#FFBC97" stroke="black" />
        <path
            d="M105.954 159.5L97.6908 150.567H95.2342V166.87L102.157 181.833H124.49L115.557 172.9L120.024 169.996L115.557 163.967L105.954 159.5Z"
            fill="#6C422B" fill-opacity="0.04" />
        <path
            d="M95.2342 164.86L93.0009 152.8L91.8843 145.877L93.0009 142.08L97.6908 138.507L96.7975 150.79V158.83L95.9042 165.53L95.2342 164.86Z"
            fill="#170E0E" />
        <path
            d="M148.386 165.53V147.217C149.637 151.326 150.098 158.011 150.173 160.84L148.386 165.53Z"
            fill="#170E0E" />
        <path
            d="M95.2342 164.86L93.0009 152.8L91.8843 145.877L93.0009 142.08L97.6908 138.507L96.7975 150.79V158.83L95.9042 165.53L95.2342 164.86Z"
            stroke="black" />
        <path
            d="M148.386 165.53V147.217C149.637 151.326 150.098 158.011 150.173 160.84L148.386 165.53Z"
            stroke="black" />
        <path
            d="M123.373 181.609C113.726 182.681 102.232 176.845 97.6908 173.793L99.9241 178.706L102.827 185.853L105.284 189.649L107.517 192.552C107.517 192.925 107.607 194.071 107.964 195.679C108.321 197.287 110.197 201.709 111.09 203.719L115.11 213.322C115.929 215.257 117.522 221.362 117.344 230.295C117.165 239.228 115.78 248.161 115.11 251.511H145.706V250.841V225.828L146.823 197.689L149.503 173.793L150.173 159.947L147.939 166.2L140.346 175.133C138.709 176.845 133.021 180.537 123.373 181.609Z"
            fill="#FAC49A" stroke="black" />
        <path
            d="M108.187 152.13L97.9141 144.09V132.924L111.09 144.09C119.205 146.77 133.736 152.577 126.947 154.363C120.157 156.15 111.612 153.619 108.187 152.13Z"
            fill="#2E2018" fill-opacity="0.06" />
        <path
            d="M84.7378 95.8517C84.7378 91.7425 86.6733 90.7152 87.641 90.7152H89.4277L90.321 87.3653L93.6709 63.6926L101.487 56.7694L123.15 53.4195L149.726 54.5362L157.989 78.4322C157.617 83.0476 157.632 92.1445 160.669 91.6085C163.706 91.0725 163.721 98.5316 163.349 102.328L162.232 106.125V109.921L161.562 113.941V117.291C161.339 118.557 160.312 121.177 157.989 121.534C155.667 121.892 154.193 120.79 153.746 120.194V123.991L151.736 131.137L148.386 138.061C146.451 141.559 141.061 148.289 139.453 149.897C137.845 151.505 135.135 152.8 133.646 153.693C130.669 154.959 121.658 155.257 117.902 154.14C114.887 153.244 105.625 149.684 100.929 140.294C97.1329 132.701 93.7453 124.214 93.6709 119.748L92.5542 120.194C91.7354 120.269 89.8297 120.194 88.7577 119.301C87.6857 118.408 87.12 115.356 86.9711 113.941L85.6311 106.348C85.3333 104.561 84.7378 99.9609 84.7378 95.8517Z"
            fill="#FFBC97" stroke="black" stroke-width="0.5" />
        <path
            d="M93.6709 80.6655L93.2242 92.2785L92.5542 95.4051H90.991L89.4277 94.5117L88.5344 93.1718L87.641 88.4819L86.7477 85.3553L86.3011 82.6754L85.8544 79.3255L86.3011 75.5289L85.6311 74.189L84.2911 71.509L83.8445 68.6058L83.3978 64.5859L84.2911 60.3427L86.5244 56.7694L88.7577 54.7595L91.4376 52.9729L92.3309 52.5262L93.0009 51.8562L93.4476 50.0696L94.5642 46.4964L97.6908 43.3698L101.041 40.9132L110.42 37.34L115.78 36.4467L123.597 36L130.52 36.8933L137.666 38.4566L141.91 40.6899L146.823 44.7098L151.736 50.9629L153.746 55.4295L153.523 59.226L150.619 60.566L149.056 61.236H143.25L136.996 59.896L130.52 59.226H122.48L117.344 59.896L112.43 60.566H108.857H103.274L101.041 61.236L98.8074 63.0226L97.6908 64.5859L96.1275 67.9358L94.5642 71.7324L94.3409 74.8589L93.6709 80.6655Z"
            fill="#4E3124" />
        <path
            d="M156.426 59.4494H153.969L149.726 61.236L150.173 63.0226L150.619 65.0325L151.959 69.9457L152.183 75.5289L153.969 80.4421L154.639 84.2387V91.8318V101.882H155.309L155.756 97.415L156.203 96.9683L157.766 94.9584L159.999 92.0551L161.562 88.9286L162.232 85.132L162.902 84.2387L164.242 80.8888L164.689 76.6456L164.242 70.8391L162.902 67.4891L160.892 64.1392L159.106 62.1293L156.426 59.4494Z"
            fill="#4E3124" />
        <path
            d="M93.6709 80.6655L93.2242 92.2785L92.5542 95.4051H90.991L89.4277 94.5117L88.5344 93.1718L87.641 88.4819L86.7477 85.3553L86.3011 82.6754L85.8544 79.3255L86.3011 75.5289L85.6311 74.189L84.2911 71.509L83.8445 68.6058L83.3978 64.5859L84.2911 60.3427L86.5244 56.7694L88.7577 54.7595L91.4376 52.9729L92.3309 52.5262L93.0009 51.8562L93.4476 50.0696L94.5642 46.4964L97.6908 43.3698L101.041 40.9132L110.42 37.34L115.78 36.4467L123.597 36L130.52 36.8933L137.666 38.4566L141.91 40.6899L146.823 44.7098L151.736 50.9629L153.746 55.4295L153.523 59.226L150.619 60.566L149.056 61.236H143.25L136.996 59.896L130.52 59.226H122.48L117.344 59.896L112.43 60.566H108.857H103.274L101.041 61.236L98.8074 63.0226L97.6908 64.5859L96.1275 67.9358L94.5642 71.7324L94.3409 74.8589L93.6709 80.6655Z"
            stroke="black" />
        <path
            d="M156.426 59.4494H153.969L149.726 61.236L150.173 63.0226L150.619 65.0325L151.959 69.9457L152.183 75.5289L153.969 80.4421L154.639 84.2387V91.8318V101.882H155.309L155.756 97.415L156.203 96.9683L157.766 94.9584L159.999 92.0551L161.562 88.9286L162.232 85.132L162.902 84.2387L164.242 80.8888L164.689 76.6456L164.242 70.8391L162.902 67.4891L160.892 64.1392L159.106 62.1293L156.426 59.4494Z"
            stroke="black" />
        <path
            d="M113.1 86.9186L116.004 89.5986L114.664 90.9385H112.207L108.41 89.5986H104.391L101.264 90.9385H98.8074L98.1374 89.5986L100.594 87.5886L104.391 85.802L110.42 86.2486L113.1 86.9186Z"
            fill="#4E3124" />
        <path
            d="M136.773 86.9186L132.307 88.4819L133.423 90.0452L134.763 90.4919L136.773 90.9385L139.453 90.4919L143.026 90.0452H144.813L147.716 91.1618L149.503 90.9385L150.396 90.4919L149.949 88.4819L147.939 86.9186L144.813 85.802L140.346 86.2486L136.773 86.9186Z"
            fill="#4E3124" />
        <path
            d="M113.1 86.9186L116.004 89.5986L114.664 90.9385H112.207L108.41 89.5986H104.391L101.264 90.9385H98.8074L98.1374 89.5986L100.594 87.5886L104.391 85.802L110.42 86.2486L113.1 86.9186Z"
            stroke="black" />
        <path
            d="M136.773 86.9186L132.307 88.4819L133.423 90.0452L134.763 90.4919L136.773 90.9385L139.453 90.4919L143.026 90.0452H144.813L147.716 91.1618L149.503 90.9385L150.396 90.4919L149.949 88.4819L147.939 86.9186L144.813 85.802L140.346 86.2486L136.773 86.9186Z"
            stroke="black" />
        <path
            d="M108.187 94.9584L106.847 95.4051L104.614 96.8501L105.507 97.8617L106.177 98.5316L107.071 99.2016L108.41 99.425H109.75L111.537 99.2016L113.994 98.755L116.45 97.8617L116.004 97.415L114.44 96.2984L112.43 95.4051L110.644 94.9584H108.187Z"
            fill="#D9D9D9" />
        <path
            d="M141.016 95.8517L143.25 96.745L144.232 97.1917L143.25 98.3083L141.91 99.2016L140.57 99.8716L139.23 100.318L137.443 100.095L135.21 99.425L132.307 97.8617L132.976 97.1917L134.763 96.075L136.996 95.4051H139.453L141.016 95.8517Z"
            fill="#D9D9D9" />
        <path
            d="M103.051 97.8617L104.614 96.8501M104.614 96.8501L106.847 95.4051L108.187 94.9584H110.644L112.43 95.4051L114.44 96.2984L116.004 97.415L116.45 97.8617L113.994 98.755L111.537 99.2016L109.75 99.425H108.41L107.071 99.2016L106.177 98.5316L105.507 97.8617L104.614 96.8501ZM145.706 97.8617L144.232 97.1917M144.232 97.1917L143.25 96.745L141.016 95.8517L139.453 95.4051H136.996L134.763 96.075L132.976 97.1917L132.307 97.8617L135.21 99.425L137.443 100.095L139.23 100.318L140.57 99.8716L141.91 99.2016L143.25 98.3083L144.232 97.1917Z"
            stroke="#2B0801" />
        <path
            d="M111.314 99.2016C113.279 98.1297 112.877 96.2239 112.43 95.4051C111.463 95.1073 109.259 94.6011 108.187 94.9584C107.115 95.3157 107.145 97.0428 107.294 97.8617C107.815 98.755 109.348 100.274 111.314 99.2016Z"
            fill="#490D00" />
        <path
            d="M138.783 99.6483C140.927 99.1123 140.719 96.8939 140.57 95.8517C137.89 94.9584 136.55 95.6284 135.88 95.8517C135.344 96.0304 135.359 97.2661 135.433 97.8617C135.582 98.6805 136.639 100.184 138.783 99.6483Z"
            fill="#490D00" />
        <path
            d="M111.314 99.2016C113.279 98.1297 112.877 96.2239 112.43 95.4051C111.463 95.1073 109.259 94.6011 108.187 94.9584C107.115 95.3157 107.145 97.0428 107.294 97.8617C107.815 98.755 109.348 100.274 111.314 99.2016Z"
            stroke="black" stroke-width="0.5" />
        <path
            d="M138.783 99.6483C140.927 99.1123 140.719 96.8939 140.57 95.8517C137.89 94.9584 136.55 95.6284 135.88 95.8517C135.344 96.0304 135.359 97.2661 135.433 97.8617C135.582 98.6805 136.639 100.184 138.783 99.6483Z"
            stroke="black" stroke-width="0.5" />
        <circle cx="109.974" cy="96.745" r="1.11664" fill="#190A05" />
        <circle cx="138.113" cy="97.1917" r="1.11664" fill="#190A05" />
        <circle cx="111.09" cy="96.075" r="0.446655" fill="#D9D9D9" />
        <circle cx="139.23" cy="96.5217" r="0.446655" fill="#D9D9D9" />
        <path
            d="M116.674 116.175C117.12 115.653 118.371 114.924 119.8 116.175C121.587 117.738 121.587 118.854 123.373 118.854C124.803 118.854 126.053 117.812 126.5 117.291L128.51 116.175H130.743H132.083L130.743 116.844C130.148 116.77 128.867 116.532 128.51 116.175L126.5 117.291C126.053 117.812 124.803 118.854 123.373 118.854C121.587 118.854 121.587 117.738 119.8 116.175H116.674Z"
            fill="black" />
        <path
            d="M116.674 116.175C117.12 115.653 118.371 114.924 119.8 116.175M116.674 116.175C117.492 116.175 119.264 116.175 119.8 116.175M116.674 116.175C115.706 116.1 113.949 115.46 114.664 113.495C115.378 111.529 116.301 110.889 116.674 110.815H117.12M119.8 116.175C121.587 117.738 121.587 118.854 123.373 118.854C124.803 118.854 126.053 117.812 126.5 117.291L128.51 116.175M128.51 116.175H130.743H132.083M128.51 116.175C128.867 116.532 130.148 116.77 130.743 116.844L132.083 116.175M132.083 116.175C132.455 116.1 133.289 115.817 133.646 115.281C134.004 114.745 133.2 113.867 132.753 113.495L131.413 112.378L129.85 111.931M121.14 95.1817C121.587 100.542 122.346 111.485 121.81 112.378C121.274 113.271 121.587 114.239 121.81 114.611"
            stroke="black" stroke-width="0.5" />
        <path
            d="M116.004 130.244C114.574 129.172 112.728 128.606 111.984 128.458C112.877 128.458 118.014 126.373 120.47 125.331C121.363 125.629 123.329 126.224 124.043 126.224C124.758 126.224 126.128 125.629 126.723 125.331L129.627 126.224L135.433 128.011C134.242 128.458 131.413 129.708 129.627 131.137C127.393 132.924 125.383 133.371 122.033 133.371C118.684 133.371 117.79 131.584 116.004 130.244Z"
            fill="#AA2329" fill-opacity="0.53" />
        <path
            d="M111.984 128.458C112.728 128.606 114.574 129.172 116.004 130.244C117.79 131.584 118.684 133.371 122.033 133.371C125.383 133.371 127.393 132.924 129.627 131.137C131.413 129.708 134.242 128.458 135.433 128.011M111.984 128.458C112.877 128.458 118.014 126.373 120.47 125.331C121.363 125.629 123.329 126.224 124.043 126.224C124.758 126.224 126.128 125.629 126.723 125.331L129.627 126.224L135.433 128.011M111.984 128.458C117.269 129.202 129.359 130.155 135.433 128.011"
            stroke="black" />
        <path
            d="M123.15 123.098L120.47 122.428H118.46L116.674 123.098L114.44 124.214L112.207 125.331L109.527 127.118H107.741L107.294 126.224L109.527 122.428L113.547 120.641L117.344 119.301L120.47 119.524L123.15 119.971L125.607 119.524L128.063 118.854L133.2 119.524L138.56 122.428L140.123 124.214V126.224L139.006 127.118L138.113 126.224L136.55 125.331L133.2 124.214L126.723 123.098H124.937H123.15Z"
            fill="#4E3124" fill-opacity="0.05" />
        <path
            d="M97.9299 125.6L94.1192 119.468L93.6709 119.672L93.8951 122.942L94.5675 126.213L95.9042 128.461L97.2441 131.732L99.7232 137.864L101.965 141.543L103.758 144.76L106.624 147.664L111.09 151.237L115.19 153.194L118.777 154.42L123.484 155.033H127.84L133.571 154.14L138.783 151.237L141.24 148.557L146.153 141.543L150.396 133.776L152.624 128.461L153.521 123.76L153.969 118.854H152.848L151.279 121.307L149.262 125.6L147.02 128.257L143.21 131.732L137.83 135.82L133.571 139.295L131.105 140.521L126.846 139.295L125.95 138.477V136.229L126.846 134.798V133.98L124.38 133.571L122.139 133.776L120.794 134.798L121.242 135.82V137.659L121.691 139.703L121.242 140.521L119.449 141.543H116.311L112.052 140.521L108.241 137.864L103.758 132.754L97.9299 125.6Z"
            fill="#4E3124" fill-opacity="0.05" />
        <g filter="url(#filter0_i_1_2)">
            <path
                d="M149.949 244.141C151.2 244.498 153.002 244.29 153.746 244.141C152.927 244.513 151.066 245.526 150.173 246.598C149.279 247.67 148.609 247.64 148.386 247.491C148.088 247.417 147.448 247.044 147.269 246.151C147.046 245.034 148.386 243.694 149.949 244.141Z"
                fill="#FAC49A" />
        </g>
        <path
            d="M149.949 244.141C151.2 244.498 153.002 244.29 153.746 244.141C152.927 244.513 151.066 245.526 150.173 246.598C149.279 247.67 148.609 247.64 148.386 247.491C148.088 247.417 147.448 247.044 147.269 246.151C147.046 245.034 148.386 243.694 149.949 244.141Z"
            stroke="black" />
        <g filter="url(#filter1_d_1_2)">
            <circle cx="107.517" cy="243.471" r="4.01989" fill="#563B2D" />
            <circle cx="107.517" cy="243.471" r="3.51989" stroke="black" />
        </g>
        <circle cx="107.517" cy="243.471" r="2.62658" stroke="black" />
        <circle cx="107.517" cy="243.471" r="1.28662" stroke="black" />
        <path
            d="M42.5289 252.851L39.849 244.364V232.528L44.9855 244.364L48.1121 255.531L42.5289 232.528L41.8589 230.295V226.052L39.849 222.702L41.189 217.565L41.8589 213.322L39.849 206.622L43.4222 217.565L46.1022 230.965L46.9955 237.218V240.121V242.801L48.1121 245.928V255.531L42.5289 252.851Z"
            fill="#030202" />
        <path
            d="M48.1121 255.531L44.9855 244.364L39.849 232.528V244.364L42.5289 252.851L48.1121 255.531ZM48.1121 255.531L42.5289 232.528L41.8589 230.295V226.052L39.849 222.702L41.189 217.565L41.8589 213.322L39.849 206.622L43.4222 217.565L46.1022 230.965L46.9955 237.218V240.121V242.801L48.1121 245.928V255.531Z"
            stroke="black" />
        <path
            d="M30.4692 231.858L38.509 253.297H8.80649V249.501V240.121L10.1465 234.761L11.7097 225.605L13.273 229.401L16.1763 236.101L19.0795 241.908V237.218V231.858V224.265L20.1962 216.448L20.8662 204.612L22.2061 199.922L25.1094 204.612L26.0027 209.972L30.4692 231.858Z"
            fill="black" fill-opacity="0.15" />
        <path
            d="M8.80651 240.791V252.627H3L5.23327 241.908L7.9132 232.305L11.2631 220.022L16.3996 201.262L19.5262 192.776L23.3228 184.066L27.3427 177.366L29.576 174.686L33.5958 170.666L38.2857 167.763L45.2089 165.753L55.0353 161.957L65.5316 157.937L62.4051 159.947L60.1718 162.403L56.1519 163.967L46.3255 168.656L41.6356 169.773L38.9557 170.666L38.2857 172.23V177.366V179.823L36.9458 183.396L34.2658 180.493H32.0326L29.576 184.959H26.6727L27.7893 189.873L28.906 193.669L32.0326 205.282L34.2658 212.875L36.9458 218.905L39.6257 225.158L42.3056 232.305L41.859 233.421L40.7423 229.848L38.9557 225.158L36.9458 220.692L33.1492 212.875L30.6926 203.719L27.7893 192.776L25.1094 186.746H24.6627L23.3228 192.329V197.019L25.7794 203.719L30.2459 228.061L38.0624 247.491L42.5289 254.861L38.0624 249.501L29.576 228.061L24.6627 203.049L20.6429 198.806V201.262L18.1863 220.692V240.791L11.2631 226.275L8.80651 240.791Z"
            fill="#F0CEBC" fill-opacity="0.07" />
    </g>
    <defs>
        <filter id="filter0_i_1_2" x="146.745" y="243.553" width="7.20827" height="8.01873"
            filterUnits="userSpaceOnUse" color-interpolation-filters="sRGB">
            <feFlood flood-opacity="0" result="BackgroundImageFix" />
            <feBlend mode="normal" in="SourceGraphic" in2="BackgroundImageFix" result="shape" />
            <feColorMatrix in="SourceAlpha" type="matrix"
                values="0 0 0 0 0 0 0 0 0 0 0 0 0 0 0 0 0 0 127 0" result="hardAlpha" />
            <feOffset dy="4" />
            <feGaussianBlur stdDeviation="1.75" />
            <feComposite in2="hardAlpha" operator="arithmetic" k2="-1" k3="1" />
            <feColorMatrix type="matrix"
                values="0 0 0 0 0.331934 0 0 0 0 0.241186 0 0 0 0 0.17211 0 0 0 1 0" />
            <feBlend mode="normal" in2="shape" result="effect1_innerShadow_1_2" />
        </filter>
        <filter id="filter1_d_1_2" x="99.1973" y="236.151" width="14.6398" height="14.6398"
            filterUnits="userSpaceOnUse" color-interpolation-filters="sRGB">
            <feFlood flood-opacity="0" result="BackgroundImageFix" />
            <feColorMatrix in="SourceAlpha" type="matrix"
                values="0 0 0 0 0 0 0 0 0 0 0 0 0 0 0 0 0 0 127 0" result="hardAlpha" />
            <feOffset dx="-1" />
            <feGaussianBlur stdDeviation="1.65" />
            <feComposite in2="hardAlpha" operator="out" />
            <feColorMatrix type="matrix" values="0 0 0 0 0 0 0 0 0 0 0 0 0 0 0 0 0 0 1 0" />
            <feBlend mode="normal" in2="BackgroundImageFix" result="effect1_dropShadow_1_2" />
            <feBlend mode="normal" in="SourceGraphic" in2="effect1_dropShadow_1_2" result="shape" />
        </filter>
        <linearGradient id="paint0_linear_1_2" x1="98.8798" y1="186.609" x2="90.128" y2="253.525"
            gradientUnits="userSpaceOnUse">
            <stop stop-color="#2F1F13" />
            <stop offset="1" stop-color="#D9D9D9" stop-opacity="0" />
        </linearGradient>
        <clipPath id="clip0_1_2">
            <rect width="250" height="250" fill="white" />
        </clipPath>
    </defs>
</svg>