<svg width="550" height="550" viewBox="0 0 550 550" fill="none" xmlns="http://www.w3.org/2000/svg">
    <g clip-path="url(#clip0_1_2)">
        <path
            d="M417.5 338.5L341 323V333.5L337.5 375L319.5 433.5V548.5L326 573L462 558.5V548.5L455 513.5L462 501.5L477 513.5L499 528L526.5 548.5L556 573V428L485 371.5L477 361L455 349L417.5 338.5Z"
            fill="#47382C" stroke="black" />
        <path
            d="M142.5 337.5L188.5 323.5V339.5L217 397L244 414L259.5 454.5L263.5 513.5L254.5 548.5V554L221 558H109.5H5V548.5L9 524.5L21.5 473.5L38.5 421.5L55.5 387.5L63 378L73.5 367L85.5 361L117.5 350L142.5 337.5Z"
            fill="#47382C" stroke="black" />
        <path
            d="M395 552.5L425 538.5L442.5 530.5L452.5 519M107 538.5L118 543L179 552.5V543L111.5 534L107 530.5L102 526L107 538.5ZM107 538.5V552.5"
            stroke="black" />
        <path
            d="M198.027 409.842V405.208L209.911 398L220.762 400.059L230.5 409.842L236.264 420.139L244 442.277L252.799 461L259 482.95V502L252.799 488.099L248.149 480.891L236.264 465.96L220.762 442.277C216.112 437.3 205.881 425.905 202.16 420.139C198.44 414.372 197.854 410.871 198.027 409.842Z"
            fill="url(#paint0_linear_1_2)" />
        <path
            d="M206 297L215.5 290.5V297L209.5 301L204 307L202 315.5L204 328L209.5 342.5L221 377.5L234.5 408.5H230.5L223 404.5L211 403C209.833 403.5 205.9 405.3 199.5 408.5C193.1 411.7 192.833 419.5 193.5 423L195.5 431C194.167 430.167 190.8 427.1 188 421.5C185.2 415.9 182.5 403.5 181.5 398C180 390.167 176.8 371.1 176 357.5C175.2 343.9 179.333 334.5 181.5 331.5L197 309L206 297Z"
            fill="#574537" stroke="black" />
        <path
            d="M348 322.5L329.5 306.5V316.5L331 327V348.5L326.5 362.5L320 387.5L318.5 492.5L323.5 549.5V532L326.5 489C328.333 479.333 332.5 457.9 334.5 449.5C336.5 441.1 342.333 433 345 430L351.5 421.5L346.5 408.5C354.333 406.333 372.3 401.3 381.5 398.5C390.7 395.7 406 386 412.5 381.5C409.5 379.5 402.3 374.5 397.5 370.5C392.7 366.5 381.167 355.167 376 350L363 335.5L348 322.5Z"
            fill="#574537" stroke="black" />
        <path
            d="M213 325.5L215.5 292.5V283L217.5 286L224.5 289.5L258 314.5L330 289.5L328 356C328.667 355.5 329.1 357.9 323.5 365.5C317.9 373.1 302 388.5 291.5 391C286.833 392.833 272.7 395.1 255.5 393.5C238.485 391.917 222.351 380.745 215.714 376.148L215.5 376L210.5 357.5L213 342.5V325.5Z"
            fill="#FDB086" stroke="black" />
        <path d="M233.5 344L215 324H209.5V360.5L225 394H275L255 374L265 367.5L255 354L233.5 344Z"
            fill="#6C422B" fill-opacity="0.04" />
        <path
            d="M209.5 356L204.5 329L202 313.5L204.5 305L215 297L213 324.5V342.5L211 357.5L209.5 356Z"
            fill="#170E0E" />
        <path d="M328.5 357.5V316.5C331.3 325.7 332.333 340.667 332.5 347L328.5 357.5Z"
            fill="#170E0E" />
        <path
            d="M209.5 356L204.5 329L202 313.5L204.5 305L215 297L213 324.5V342.5L211 357.5L209.5 356Z"
            stroke="black" />
        <path d="M328.5 357.5V316.5C331.3 325.7 332.333 340.667 332.5 347L328.5 357.5Z"
            stroke="black" />
        <path
            d="M272.5 393.5C250.9 395.9 225.167 382.833 215 376L220 387L226.5 403L232 411.5L237 418C237 418.833 237.2 421.4 238 425C238.8 428.6 243 438.5 245 443L254 464.5C255.833 468.833 259.4 482.5 259 502.5C258.6 522.5 255.5 542.5 254 550H322.5V548.5V492.5L325 429.5L331 376L332.5 345L327.5 359L310.5 379C306.833 382.833 294.1 391.1 272.5 393.5Z"
            fill="#FAC49A" stroke="black" />
        <path
            d="M238.5 327.5L215.5 309.5V284.5L245 309.5C263.167 315.5 295.7 328.5 280.5 332.5C265.3 336.5 246.167 330.833 238.5 327.5Z"
            fill="#2E2018" fill-opacity="0.06" />
        <path
            d="M186 201.5C186 192.3 190.333 190 192.5 190H196.5L198.5 182.5L206 129.5L223.5 114L272 106.5L331.5 109L350 162.5C349.167 172.833 349.2 193.2 356 192C362.8 190.8 362.833 207.5 362 216L359.5 224.5V233L358 242V249.5C357.5 252.333 355.2 258.2 350 259C344.8 259.8 341.5 257.333 340.5 256V264.5L336 280.5L328.5 296C324.167 303.833 312.1 318.9 308.5 322.5C304.9 326.1 298.833 329 295.5 331C288.833 333.833 268.66 334.5 260.251 332C253.5 329.993 232.763 322.024 222.251 301C213.751 284 206.167 265 206 255L203.5 256C201.667 256.167 197.4 256 195 254C192.6 252 191.333 245.167 191 242L188 225C187.333 221 186 210.7 186 201.5Z"
            fill="#FEAC7F" stroke="black" stroke-width="0.5" />
        <path
            d="M206 167.5L205 193.5L203.5 200.5H200L196.5 198.5L194.5 195.5L192.5 185L190.5 178L189.5 172L188.5 164.5L189.5 156L188 153L185 147L184 140.5L183 131.5L185 122L190 114L195 109.5L201 105.5L203 104.5L204.5 103L205.5 99L208 91L215 84L222.5 78.5L243.5 70.5L255.5 68.5L273 67.5L288.5 69.5L304.5 73L314 78L325 87L336 101L340.5 111L340 119.5L333.5 122.5L330 124H317L303 121L288.5 119.5H270.5L259 121L248 122.5H240H227.5L222.5 124L217.5 128L215 131.5L211.5 139L208 147.5L207.5 154.5L206 167.5Z"
            fill="#4E3124" />
        <path
            d="M346.5 120H341L331.5 124L332.5 128L333.5 132.5L336.5 143.5L337 156L341 167L342.5 175.5V192.5V215H344L345 205L346 204L349.5 199.5L354.5 193L358 186L359.5 177.5L361 175.5L364 168L365 158.5L364 145.5L361 138L356.5 130.5L352.5 126L346.5 120Z"
            fill="#4E3124" />
        <path
            d="M206 167.5L205 193.5L203.5 200.5H200L196.5 198.5L194.5 195.5L192.5 185L190.5 178L189.5 172L188.5 164.5L189.5 156L188 153L185 147L184 140.5L183 131.5L185 122L190 114L195 109.5L201 105.5L203 104.5L204.5 103L205.5 99L208 91L215 84L222.5 78.5L243.5 70.5L255.5 68.5L273 67.5L288.5 69.5L304.5 73L314 78L325 87L336 101L340.5 111L340 119.5L333.5 122.5L330 124H317L303 121L288.5 119.5H270.5L259 121L248 122.5H240H227.5L222.5 124L217.5 128L215 131.5L211.5 139L208 147.5L207.5 154.5L206 167.5Z"
            stroke="black" />
        <path
            d="M346.5 120H341L331.5 124L332.5 128L333.5 132.5L336.5 143.5L337 156L341 167L342.5 175.5V192.5V215H344L345 205L346 204L349.5 199.5L354.5 193L358 186L359.5 177.5L361 175.5L364 168L365 158.5L364 145.5L361 138L356.5 130.5L352.5 126L346.5 120Z"
            stroke="black" />
        <path
            d="M249.5 181.5L256 187.5L253 190.5H247.5L239 187.5H230L223 190.5H217.5L216 187.5L221.5 183L230 179L243.5 180L249.5 181.5Z"
            fill="#4E3124" />
        <path
            d="M302.5 181.5L292.5 185L295 188.5L298 189.5L302.5 190.5L308.5 189.5L316.5 188.5H320.5L327 191L331 190.5L333 189.5L332 185L327.5 181.5L320.5 179L310.5 180L302.5 181.5Z"
            fill="#4E3124" />
        <path
            d="M249.5 181.5L256 187.5L253 190.5H247.5L239 187.5H230L223 190.5H217.5L216 187.5L221.5 183L230 179L243.5 180L249.5 181.5Z"
            stroke="black" />
        <path
            d="M302.5 181.5L292.5 185L295 188.5L298 189.5L302.5 190.5L308.5 189.5L316.5 188.5H320.5L327 191L331 190.5L333 189.5L332 185L327.5 181.5L320.5 179L310.5 180L302.5 181.5Z"
            stroke="black" />
        <path
            d="M238.5 199.5L235.5 200.5L230.5 203.735L232.5 206L234 207.5L236 209L239 209.5H242L246 209L251.5 208L257 206L256 205L252.5 202.5L248 200.5L244 199.5H238.5Z"
            fill="#D9D9D9" />
        <path
            d="M312 201.5L317 203.5L319.2 204.5L317 207L314 209L311 210.5L308 211.5L304 211L299 209.5L292.5 206L294 204.5L298 202L303 200.5H308.5L312 201.5Z"
            fill="#D9D9D9" />
        <path
            d="M227 206L230.5 203.735M230.5 203.735L235.5 200.5L238.5 199.5H244L248 200.5L252.5 202.5L256 205L257 206L251.5 208L246 209L242 209.5H239L236 209L234 207.5L232.5 206L230.5 203.735ZM322.5 206L319.2 204.5M319.2 204.5L317 203.5L312 201.5L308.5 200.5H303L298 202L294 204.5L292.5 206L299 209.5L304 211L308 211.5L311 210.5L314 209L317 207L319.2 204.5Z"
            stroke="#2B0801" />
        <path
            d="M245.5 209C249.9 206.6 249 202.333 248 200.5C245.833 199.833 240.9 198.7 238.5 199.5C236.1 200.3 236.167 204.167 236.5 206C237.667 208 241.1 211.4 245.5 209Z"
            fill="#490D00" />
        <path
            d="M307 210C311.8 208.8 311.333 203.833 311 201.5C305 199.5 302 201 300.5 201.5C299.3 201.9 299.333 204.667 299.5 206C299.833 207.833 302.2 211.2 307 210Z"
            fill="#490D00" />
        <path
            d="M245.5 209C249.9 206.6 249 202.333 248 200.5C245.833 199.833 240.9 198.7 238.5 199.5C236.1 200.3 236.167 204.167 236.5 206C237.667 208 241.1 211.4 245.5 209Z"
            stroke="black" stroke-width="0.5" />
        <path
            d="M307 210C311.8 208.8 311.333 203.833 311 201.5C305 199.5 302 201 300.5 201.5C299.3 201.9 299.333 204.667 299.5 206C299.833 207.833 302.2 211.2 307 210Z"
            stroke="black" stroke-width="0.5" />
        <circle cx="242.5" cy="203.5" r="2.5" fill="#190A05" />
        <circle cx="305.5" cy="204.5" r="2.5" fill="#190A05" />
        <circle cx="245" cy="202" r="1" fill="#D9D9D9" />
        <circle cx="308" cy="203" r="1" fill="#D9D9D9" />
        <path
            d="M257.5 247C258.5 245.833 261.3 244.2 264.5 247C268.5 250.5 268.5 253 272.5 253C275.7 253 278.5 250.667 279.5 249.5L284 247H289H292L289 248.5C287.667 248.333 284.8 247.8 284 247L279.5 249.5C278.5 250.667 275.7 253 272.5 253C268.5 253 268.5 250.5 264.5 247H257.5Z"
            fill="black" />
        <path
            d="M257.5 247C258.5 245.833 261.3 244.2 264.5 247M257.5 247C259.333 247 263.3 247 264.5 247M257.5 247C255.333 246.833 251.4 245.4 253 241C254.6 236.6 256.667 235.167 257.5 235H258.5M264.5 247C268.5 250.5 268.5 253 272.5 253C275.7 253 278.5 250.667 279.5 249.5L284 247M284 247H289H292M284 247C284.8 247.8 287.667 248.333 289 248.5L292 247M292 247C292.833 246.833 294.7 246.2 295.5 245C296.3 243.8 294.5 241.833 293.5 241L290.5 238.5L287 237.5M267.5 200C268.5 212 270.2 236.5 269 238.5C267.8 240.5 268.5 242.667 269 243.5"
            stroke="black" stroke-width="0.5" />
        <path
            d="M256 278.5C252.8 276.1 248.667 274.833 247 274.5C249 274.5 260.5 269.833 266 267.5C268 268.167 272.4 269.5 274 269.5C275.6 269.5 278.667 268.167 280 267.5L286.5 269.5L299.5 273.5C296.833 274.5 290.5 277.3 286.5 280.5C281.5 284.5 277 285.5 269.5 285.5C262 285.5 260 281.5 256 278.5Z"
            fill="#AA2329" fill-opacity="0.53" />
        <path
            d="M247 274.5C248.667 274.833 252.8 276.1 256 278.5C260 281.5 262 285.5 269.5 285.5C277 285.5 281.5 284.5 286.5 280.5C290.5 277.3 296.833 274.5 299.5 273.5M247 274.5C249 274.5 260.5 269.833 266 267.5C268 268.167 272.4 269.5 274 269.5C275.6 269.5 278.667 268.167 280 267.5L286.5 269.5L299.5 273.5M247 274.5C258.833 276.167 285.9 278.3 299.5 273.5"
            stroke="black" />
        <path
            d="M272 262.5L266 261H261.5L257.5 262.5L252.5 265L247.5 267.5L241.5 271.5H237.5L236.5 269.5L241.5 261L250.5 257L259 254L266 254.5L272 255.5L277.5 254.5L283 253L294.5 254.5L306.5 261L310 265V269.5L307.5 271.5L305.5 269.5L302 267.5L294.5 265L280 262.5H276H272Z"
            fill="#4E3124" fill-opacity="0.05" />
        <path
            d="M215.535 268.102L207.004 254.373L206 254.831L206.502 262.153L208.007 269.475L211 274.508L214 281.831L219.55 295.559L224.569 303.797L228.584 311L235 317.5L245 325.5L254.178 329.881L262.208 332.627L272.747 334H282.5L295.331 332L307 325.5L312.5 319.5L323.5 303.797L333 286.407L337.989 274.508L339.996 263.983L341 253H338.491L334.978 258.492L330.461 268.102L325.442 274.051L316.911 281.831L304.866 290.983L295.331 298.763L289.81 301.508L280.275 298.763L278.268 296.932V291.898L280.275 288.695V286.864L274.755 285.949L269.736 286.407L266.725 288.695L267.729 290.983V295.102L268.732 299.678L267.729 301.508L263.714 303.797H256.688L247.152 301.508L238.621 295.559L228.584 284.119L215.535 268.102Z"
            fill="#4E3124" fill-opacity="0.05" />
        <g filter="url(#filter0_i_1_2)">
            <path
                d="M332 533.5C334.8 534.3 338.833 533.833 340.5 533.5C338.667 534.333 334.5 536.6 332.5 539C330.5 541.4 329 541.333 328.5 541C327.833 540.833 326.4 540 326 538C325.5 535.5 328.5 532.5 332 533.5Z"
                fill="#FAC49A" />
        </g>
        <path
            d="M332 533.5C334.8 534.3 338.833 533.833 340.5 533.5C338.667 534.333 334.5 536.6 332.5 539C330.5 541.4 329 541.333 328.5 541C327.833 540.833 326.4 540 326 538C325.5 535.5 328.5 532.5 332 533.5Z"
            stroke="black" />
        <g filter="url(#filter1_d_1_2)">
            <circle cx="237" cy="532" r="9" fill="#563B2D" />
            <circle cx="237" cy="532" r="8.5" stroke="black" />
        </g>
        <circle cx="237" cy="532" r="6.5" stroke="black" />
        <circle cx="237" cy="532" r="3.5" stroke="black" />
        <path
            d="M91.5 553L85.5 534V507.5L97 534L104 559L91.5 507.5L90 502.5V493L85.5 485.5L88.5 474L90 464.5L85.5 449.5L93.5 474L99.5 504L101.5 518V524.5V530.5L104 537.5V559L91.5 553Z"
            fill="#030202" />
        <path
            d="M104 559L97 534L85.5 507.5V534L91.5 553L104 559ZM104 559L91.5 507.5L90 502.5V493L85.5 485.5L88.5 474L90 464.5L85.5 449.5L93.5 474L99.5 504L101.5 518V524.5V530.5L104 537.5V559Z"
            stroke="black" />
        <path
            d="M64.5 506L82.5 554H16V545.5V524.5L19 512.5L22.5 492L26 500.5L32.5 515.5L39 528.5V518V506V489L41.5 471.5L43 445L46 434.5L52.5 445L54.5 457L64.5 506Z"
            fill="black" fill-opacity="0.15" />
        <path
            d="M16 526V552.5H3L8 528.5L14 507L21.5 479.5L33 437.5L40 418.5L48.5 399L57.5 384L62.5 378L71.5 369L82 362.5L97.5 358L119.5 349.5L143 340.5L136 345L131 350.5L122 354L100 364.5L89.5 367L83.5 369L82 372.5V384V389.5L79 397.5L73 391H68L62.5 401H56L58.5 412L61 420.5L68 446.5L73 463.5L79 477L85 491L91 507L90 509.5L87.5 501.5L83.5 491L79 481L70.5 463.5L65 443L58.5 418.5L52.5 405H51.5L48.5 417.5V428L54 443L64 497.5L81.5 541L91.5 557.5L81.5 545.5L62.5 497.5L51.5 441.5L42.5 432V437.5L37 481V526L21.5 493.5L16 526Z"
            fill="#F0CEBC" fill-opacity="0.07" />
    </g>
    <defs>
        <filter id="filter0_i_1_2" x="325.445" y="532.802" width="15.262" height="12.3716"
            filterUnits="userSpaceOnUse" color-interpolation-filters="sRGB">
            <feFlood flood-opacity="0" result="BackgroundImageFix" />
            <feBlend mode="normal" in="SourceGraphic" in2="BackgroundImageFix" result="shape" />
            <feColorMatrix in="SourceAlpha" type="matrix"
                values="0 0 0 0 0 0 0 0 0 0 0 0 0 0 0 0 0 0 127 0" result="hardAlpha" />
            <feOffset dy="4" />
            <feGaussianBlur stdDeviation="1.75" />
            <feComposite in2="hardAlpha" operator="arithmetic" k2="-1" k3="1" />
            <feColorMatrix type="matrix"
                values="0 0 0 0 0.331934 0 0 0 0 0.241186 0 0 0 0 0.17211 0 0 0 1 0" />
            <feBlend mode="normal" in2="shape" result="effect1_innerShadow_1_2" />
        </filter>
        <filter id="filter1_d_1_2" x="223.7" y="519.7" width="24.6" height="24.6"
            filterUnits="userSpaceOnUse" color-interpolation-filters="sRGB">
            <feFlood flood-opacity="0" result="BackgroundImageFix" />
            <feColorMatrix in="SourceAlpha" type="matrix"
                values="0 0 0 0 0 0 0 0 0 0 0 0 0 0 0 0 0 0 127 0" result="hardAlpha" />
            <feOffset dx="-1" />
            <feGaussianBlur stdDeviation="1.65" />
            <feComposite in2="hardAlpha" operator="out" />
            <feColorMatrix type="matrix" values="0 0 0 0 0 0 0 0 0 0 0 0 0 0 0 0 0 0 1 0" />
            <feBlend mode="normal" in2="BackgroundImageFix" result="effect1_dropShadow_1_2" />
            <feBlend mode="normal" in="SourceGraphic" in2="effect1_dropShadow_1_2" result="shape" />
        </filter>
        <linearGradient id="paint0_linear_1_2" x1="217.662" y1="404.693" x2="198.068" y2="554.509"
            gradientUnits="userSpaceOnUse">
            <stop stop-color="#2F1F13" />
            <stop offset="1" stop-color="#D9D9D9" stop-opacity="0" />
        </linearGradient>
        <clipPath id="clip0_1_2">
            <rect width="550" height="550" fill="white" />
        </clipPath>
    </defs>
</svg>